<svg xmlns="http://www.w3.org/2000/svg" viewBox="0 0 515.49 640.73"><defs><style>.cls-1,.cls-2{fill:none;stroke:#fff;stroke-linejoin:round;stroke-width:20px;}.cls-1{stroke-linecap:round;}.cls-3{fill:#fff;}</style></defs><title>Asset 1</title><g id="Layer_2" data-name="Layer 2"><g id="Layer_1-2" data-name="Layer 1"><line class="cls-1" x1="231.94" y1="400.12" x2="176.76" y2="400.12"/><path class="cls-1" d="M471.23,482.88c-5.13,37.21-9.13,43.82-14.11,80.71-6.42,47.48-25.67,80.84-137.29,61.59C254.39,612.35,183.82,579,162,490.46c-14.12-43.63-60.31-120.61-60.31-120.61"/><path class="cls-1" d="M403.23,172.38s34.64,67.88,42.34,83.27"/><path class="cls-1" d="M121.59,411.55S51.66,396.79,85,444.27c12.81,18.23,22.31,32.2,31.12,42.86"/><path class="cls-2" d="M389.75,355.09s15.4,110.35,86,62.87c14.12-10.26,39.78-18,25.66-105.21,0,0-69.28-19.25-110.34,35.93l-18,5.13s-105.21-15.4-145,44.91C247.33,446.19,248.62,450,248.62,450s21.81,50,78.26,18c19.25-11.54,56.46-25.66,37.21-110.34"/><path class="cls-3" d="M398.09,127.47c-52.6-5.13-113.94,9.44-155.25,33.36-24.38,14.11-51.32-14.12-33.36-34.64,29.94-43.84,122.25-52,152.19-53.56A4.66,4.66,0,0,0,365,65c-7.38-8.79-6.95-8.36-14.37-15.78-18-18-93.66-88.66-220.69-19.37C83.74,55.49,55.51,85,35,113.23s-35.92,50-28.23,123.18C17,278.75,35,327.51,58.08,351.88c-16.68,10.27-115.48,92.51-10.27,63,48.69-18.3,66.42-14.9,71.86-5.13a24.17,24.17,0,0,0,2.56-14.12c-.76-5.2,1.29-10.26-3.85-21.81-6.81-15.32,6.23-32.56,12.83-41.06,9.59-12.32,4.95-10.28,42.35-43.75,74.41-66.59,117.09-90.64,163-97.39,28.34-4.17,55.06-.8,70.3,2.06,8.22,1.55,13.1,2.95,13.1,2.95L430.17,198"/></g></g></svg>